<?xml version="1.0" encoding="utf-8"?>
<!-- Generator: Adobe Illustrator 22.0.0, SVG Export Plug-In . SVG Version: 6.00 Build 0)  -->
<svg version="1.1" xmlns="http://www.w3.org/2000/svg" xmlns:xlink="http://www.w3.org/1999/xlink" x="0px" y="0px" width="112px"
	 height="32px" viewBox="0 0 112 32" style="enable-background:new 0 0 112 32;" xml:space="preserve">
<style type="text/css">
	.st0{fill:#333333;}
	.st1{clip-path:url(#SVGID_2_);}
	.st2{fill:#FFFFFF;}
</style>
<g id="レイヤー_1">
	<g>
		<g>
			<path class="st0" d="M43.342,14.43c0.929,0,1.175-0.205,1.175-0.205c0,0.41-0.123,1.148-0.956,1.148h-2.827v4.875
				c0,0-1.147,0-1.147-0.683v-9.014h5.613c0,0,0,0.943-0.683,0.943h-3.783v2.936H43.342z"/>
			<path class="st0" d="M53.722,17.393c0,1.926-1.762,2.882-3.77,2.882c-2.008,0-3.769-0.956-3.769-2.882v-6.979
				c0,0,1.147,0,1.147,0.683v6.091c0,1.366,1.079,2.076,2.622,2.076s2.623-0.71,2.623-2.076v-6.774c0,0,1.147,0,1.147,0.683V17.393z
				"/>
			<path class="st0" d="M56.918,20.248c0,0-1.148,0-1.148-0.683v-9.15c0,0,1.148,0,1.148,0.683v3.442
				c1.885-0.15,2.772-1.297,3.92-3.373c0.355-0.655,0.888-0.778,1.27-0.778c0.232,0,0.396,0.041,0.396,0.041
				c-0.792,1.202-1.775,4.002-3.838,4.494c2.185,0.314,3.456,4.056,4.247,5.258c0,0-0.163,0.041-0.395,0.041
				c-0.382,0-1.038-0.123-1.393-0.779c-1.107-2.076-1.871-3.988-4.206-4.138V20.248z"/>
			<path class="st0" d="M71.326,17.393c0,1.926-1.762,2.882-3.769,2.882c-2.007,0-3.77-0.956-3.77-2.882v-6.979
				c0,0,1.148,0,1.148,0.683v6.091c0,1.366,1.079,2.076,2.622,2.076c1.543,0,2.622-0.71,2.622-2.076v-6.774c0,0,1.147,0,1.147,0.683
				V17.393z"/>
			<path class="st0" d="M78.211,13.733v3.182c0,1.776,1.215,2.349,2.759,2.349c1.406,0,3.168-0.437,3.168-1.666
				c1.147,2.131-1.297,2.677-3.168,2.677c-2.008,0-3.907-0.819-3.907-3.155v-3.578c0-2.336,1.899-3.155,3.907-3.155
				c1.871,0,4.315,0.546,3.168,2.677c0-1.093-1.762-1.666-3.168-1.666C79.426,11.398,78.211,11.958,78.211,13.733z"/>
			<path class="st0" d="M92.647,15.645h-5.149v4.602c0,0-1.147,0-1.147-0.683v-9.15c0,0,1.147,0,1.147,0.683v3.592h5.149v-4.275
				c0,0,1.147,0,1.147,0.683v9.15c0,0-1.147,0-1.147-0.683V15.645z"/>
			<path class="st0" d="M101.456,14.143l1.107,3.551c0.355,1.161,0.655,2.117,0.888,2.472c0,0-0.123,0.041-0.356,0.041
				c-1.093,0-1.379-1.229-1.693-2.253l-0.273-0.888h-3.932l-0.26,0.888c-0.3,1.024-0.601,2.253-1.693,2.253
				c-0.232,0-0.355-0.041-0.355-0.041c0.218-0.355,0.519-1.311,0.888-2.472l1.106-3.551c0.915-2.95,2.309-3.797,2.295-3.81
				C99.162,10.346,100.528,11.193,101.456,14.143z M97.482,16.124h3.359l-0.478-1.626c-0.546-1.858-1.202-2.636-1.188-2.636
				c0,0-0.67,0.778-1.216,2.636L97.482,16.124z"/>
			<path class="st0" d="M110.361,17.708l0.628,1.038c0,0-0.137-0.71-0.137-1.12v-7.075c0,0,1.147,0,1.147,0.683v9.014
				c-1.462,0-1.857-0.888-1.857-0.888l-4.589-7.416c0,0,0.137,0.655,0.137,1.229v7.075c0,0-1.147,0-1.147-0.683v-9.014
				c0.778,0,1.42,0,1.843,0.683L110.361,17.708z"/>
		</g>
		<g>
			<g>
				<defs>
					<path id="SVGID_1_" d="M14.212,31.134c-0.406,0.234-1.068,0.234-1.475,0l-12-6.929C0.331,23.972,0,23.397,0,22.93V9.071
						c0-0.468,0.331-1.042,0.738-1.277l12-6.928c0.406-0.235,1.069-0.235,1.475,0l12,6.928c0.406,0.235,0.737,0.809,0.737,1.277
						v13.857c0,0.469-0.331,1.043-0.737,1.277L14.212,31.134z"/>
				</defs>
				<use xlink:href="#SVGID_1_"  style="overflow:visible;fill:#D64E69;"/>
				<clipPath id="SVGID_2_">
					<use xlink:href="#SVGID_1_"  style="overflow:visible;"/>
				</clipPath>
				<g class="st1">
					<path class="st2" d="M10.855,5.59h14.931c0.282-0.014,0.369-0.111,0.441-0.414c-0.068-0.299-0.164-0.404-0.446-0.441H10.864
						c-0.3,0.041-0.407,0.151-0.421,0.441C10.46,5.472,10.561,5.572,10.855,5.59z"/>
					<path class="st2" d="M13.565,8.497c-0.609,0-1.024,0.151-1.293,0.426c-0.269,0.275-0.413,0.701-0.414,1.312v1.985
						c0.001,0.61,0.144,1.028,0.413,1.295c0.267,0.268,0.685,0.412,1.294,0.413h9.513c0.609-0.001,1.035-0.145,1.31-0.414
						c0.277-0.269,0.426-0.685,0.426-1.294v-1.985c0-0.609-0.15-1.034-0.427-1.311c-0.276-0.276-0.702-0.428-1.309-0.428H13.565z
						 M23.839,10.445v1.535c0,0.341-0.091,0.626-0.289,0.818c-0.197,0.191-0.476,0.276-0.8,0.276c-0.002,0-0.003,0-0.005,0h-8.82
						c-0.339,0-0.621-0.082-0.817-0.277c-0.193-0.196-0.276-0.479-0.275-0.818v-1.535c-0.001-0.325,0.082-0.606,0.275-0.803
						c0.192-0.197,0.476-0.29,0.817-0.29h8.82c0.329,0,0.61,0.093,0.805,0.289C23.746,9.835,23.839,10.116,23.839,10.445z"/>
					<path class="st2" d="M24.371,16.956H12.149c-0.607,0.001-1.023,0.151-1.292,0.426c-0.27,0.277-0.413,0.703-0.414,1.311v3.095
						c-1.8-1.842-4.53-4.929-5.326-6.358l-0.052-0.092l0.067-0.086c0.122-0.151,0.27-0.329,0.419-0.537
						c1.197-1.586,2.154-3.202,2.901-4.875C8.782,9.094,8.954,8.581,8.95,8.337C8.948,7.977,8.845,7.742,8.65,7.58
						c-0.194-0.162-0.51-0.257-0.956-0.257h-2.87V4.017C4.759,3.71,4.665,3.599,4.384,3.561c-0.293,0.042-0.4,0.152-0.414,0.441
						v3.32h-4.702C-0.901,7.324-1.003,7.366-1.066,7.43C-1.13,7.494-1.173,7.597-1.175,7.765c0.018,0.293,0.112,0.394,0.443,0.413
						h7.823c0.212,0.001,0.387,0.03,0.529,0.113c0.145,0.08,0.238,0.24,0.234,0.409C7.848,8.842,7.782,9,7.666,9.285
						c-0.12,0.278-0.293,0.655-0.522,1.141c-0.848,1.697-2.03,3.484-3.572,5.419c-1.175,1.417-3.272,3.462-4.598,4.638
						c-0.12,0.161-0.177,0.291-0.193,0.351c-0.002,0.006-0.003,0.01-0.005,0.013c0.063,0.264,0.155,0.358,0.454,0.422
						c0.139-0.007,0.21-0.035,0.307-0.17l0.011-0.016l0.014-0.014c1.2-1.08,3.11-2.907,4.129-4.046l0.279-0.311v12.91
						c0.013,0.28,0.109,0.368,0.414,0.439c0.29-0.065,0.377-0.157,0.441-0.454V16.133l0.298,0.524
						c0.961,1.688,4.075,5.129,5.32,6.337v4.64c0.002,0.594,0.144,1.012,0.414,1.283c0.269,0.274,0.686,0.424,1.293,0.425h12.222
						c0.609-0.001,1.035-0.152,1.311-0.425c0.276-0.274,0.426-0.69,0.426-1.283v-8.941c0-0.607-0.15-1.032-0.426-1.308
						C25.404,17.107,24.98,16.956,24.371,16.956z M17.728,28.486h-4.977c-0.415,0-0.757-0.106-0.992-0.341
						c-0.235-0.236-0.342-0.578-0.34-0.994v-3.56h6.149h0.16V28.486z M17.728,22.576v0.16h-6.309v-3.592
						c-0.002-0.416,0.106-0.758,0.34-0.992c0.235-0.237,0.577-0.341,0.992-0.341h4.977V22.576z M25.133,27.152
						c0.002,0.416-0.105,0.758-0.339,0.994c-0.235,0.235-0.576,0.341-0.991,0.341c0,0-0.001,0-0.002,0h-5.096v-4.894h6.429V27.152z
						 M25.133,22.736h-6.269h-0.159v-4.925H23.8c0.415,0,0.757,0.105,0.993,0.341c0.234,0.234,0.341,0.577,0.339,0.992V22.736z"/>
				</g>
			</g>
		</g>
	</g>
</g>
<g id="レイヤー_2">
</g>
</svg>
